<svg width="20" height="20" viewBox="0 0 20 20" fill="none" xmlns="http://www.w3.org/2000/svg">
<path d="M4.2264 18.5027C3.70168 18.5027 3.25452 18.3179 2.88494 17.9484C2.51536 17.5788 2.33057 17.1316 2.33057 16.6069V5.05981C2.33057 4.53509 2.51536 4.08794 2.88494 3.71836C3.25452 3.34877 3.70168 3.16398 4.2264 3.16398H4.99994V1.49731H6.78119V3.16398H13.2187V1.49731H14.9999V3.16398H15.7735C16.2982 3.16398 16.7454 3.34877 17.1149 3.71836C17.4845 4.08794 17.6693 4.53509 17.6693 5.05981V16.6069C17.6693 17.1316 17.4845 17.5788 17.1149 17.9484C16.7454 18.3179 16.2982 18.5027 15.7735 18.5027H4.2264ZM4.2264 16.6069H15.7735V8.33336H4.2264V16.6069ZM4.2264 6.66669H15.7735V5.05981H4.2264V6.66669Z" fill="#E3E3E3"/>
</svg>
