<svg width="20" height="20" viewBox="0 0 20 20" fill="none" xmlns="http://www.w3.org/2000/svg">
<g clip-path="url(#clip0_44_116)">
<path d="M19.9602 9.70115C19.9602 15.2525 15.6108 19.3625 10 19.3625C8.99245 19.3625 8.02551 19.2294 7.11675 18.9796C6.94025 18.9306 6.75261 18.9446 6.58488 19.0183L4.60798 19.8912C4.09085 20.1195 3.50719 19.7517 3.49006 19.1868L3.43587 17.4147C3.4291 17.1964 3.33109 16.9924 3.16814 16.847C1.2299 15.1139 0.039856 12.6051 0.039856 9.70115C0.039856 4.14976 4.38926 0.0397949 10 0.0397949C15.6108 0.0397949 19.9602 4.14976 19.9602 9.70115Z" fill="white"/>
<path d="M12.7044 12.4824L16.1721 7.12306C16.5207 6.58442 15.8749 5.95733 15.3466 6.32187L11.7267 8.81868C11.6048 8.90274 11.4438 8.90514 11.3195 8.82466L8.10639 6.74577C7.83428 6.56968 7.47133 6.64776 7.29564 6.91948L3.82751 12.2788C3.4789 12.8175 4.12472 13.4446 4.65301 13.08L8.27372 10.5828C8.39564 10.4988 8.55659 10.4964 8.6809 10.5768L11.8932 12.6553C12.1654 12.8314 12.5283 12.7533 12.7044 12.4816V12.4824Z" fill="#331E1B"/>
</g>
<defs>
<clipPath id="clip0_44_116">
<rect width="20" height="20" fill="white"/>
</clipPath>
</defs>
</svg>
